<svg width="74" height="75" viewBox="0 0 74 75" fill="none" xmlns="http://www.w3.org/2000/svg">
<path fill-rule="evenodd" clip-rule="evenodd" d="M37 74.8145C57.4345 74.8145 74 58.249 74 37.8145C74 17.3799 57.4345 0.814453 37 0.814453C16.5655 0.814453 0 17.3799 0 37.8145C0 58.249 16.5655 74.8145 37 74.8145ZM56.1302 27.7216C57.3676 26.2367 57.167 24.0297 55.682 22.7922C54.1971 21.5548 51.9901 21.7554 50.7526 23.2404L32.6506 44.9627L23.0274 35.3395C21.6605 33.9726 19.4445 33.9726 18.0776 35.3395C16.7108 36.7063 16.7108 38.9224 18.0776 40.2892L28.8624 51.0739L28.933 51.1447C29.2244 51.4369 29.6577 51.8716 30.0959 52.2029C30.6515 52.623 31.6503 53.2239 33.0226 53.1616C34.3948 53.0994 35.3351 52.4105 35.8504 51.9419C36.2567 51.5722 36.649 51.1002 36.9127 50.7828L36.9767 50.7059L56.1302 27.7216Z" fill="#D1DFCC"/>
</svg>
